<?xml version="1.0" encoding="utf-8"?>
<!-- Generator: Adobe Illustrator 26.2.1, SVG Export Plug-In . SVG Version: 6.00 Build 0)  -->
<svg version="1.1" id="Layer_1" xmlns="http://www.w3.org/2000/svg" xmlns:xlink="http://www.w3.org/1999/xlink" x="0px" y="0px"
	 viewBox="0 0 300 300" style="enable-background:new 0 0 300 300;" xml:space="preserve">
<style type="text/css">
	.st0{fill:#000B8E;}
	.st1{fill:#0000FF;}
	.st2{fill:none;stroke:#D6DE23;stroke-width:3;stroke-miterlimit:10;}
</style>
<path class="st0" d="M142.09,120.48L94.6,43.91c-1.93-3.11-0.96-7.23,2.15-9.16l0,0c3.11-1.93,7.23-0.96,9.16,2.15l47.5,76.57
	c1.93,3.11,0.96,7.23-2.15,9.16l0,0C148.15,124.55,144.02,123.59,142.09,120.48z"/>
<path class="st0" d="M147.19,119.55l13.16-89.14c0.53-3.62,3.93-6.15,7.56-5.61v0c3.62,0.53,6.15,3.93,5.61,7.56l-13.16,89.14
	c-0.53,3.62-3.93,6.15-7.56,5.61h0C149.18,126.57,146.65,123.17,147.19,119.55z"/>
<path class="st1" d="M242.5,226.15H60.01c-6.6,0-12-5.4-12-12V99.93c0-6.6,5.4-12,12-12H242.5c6.6,0,12,5.4,12,12v114.23
	C254.5,220.75,249.1,226.15,242.5,226.15z"/>
<path d="M215.47,201.92H84.53c-6.6,0-12-5.4-12-12v-64.4c0-6.6,5.4-12,12-12h130.95c6.6,0,12,5.4,12,12v64.4
	C227.47,196.52,222.07,201.92,215.47,201.92z"/>
<ellipse class="st2" cx="105.9" cy="139.98" rx="10.75" ry="14.85"/>
<ellipse class="st2" cx="195.97" cy="139.98" rx="10.75" ry="14.85"/>
<path class="st2" d="M130.98,172.57h40.55c0,0-6.42,21.16-22.46,21.84C133.03,195.1,130.98,172.57,130.98,172.57z"/>
</svg>
