<?xml version="1.0" encoding="utf-8"?>
<!-- Generator: Adobe Illustrator 26.2.1, SVG Export Plug-In . SVG Version: 6.00 Build 0)  -->
<svg version="1.1" xmlns="http://www.w3.org/2000/svg" xmlns:xlink="http://www.w3.org/1999/xlink" x="0px" y="0px"
	 viewBox="0 0 300 300" style="enable-background:new 0 0 300 300;" xml:space="preserve">
<style type="text/css">
	.st0{display:none;}
	.st1{display:inline;fill:#373737;}
	.st2{fill:#E922E9;}
	.st3{fill:none;stroke:#23E823;stroke-width:9;stroke-miterlimit:10;}
	.st4{fill:#23E823;}
</style>
<g id="Layer_2" class="st0">
	<rect class="st1" width="300" height="300"/>
	<rect x="310" y="0" class="st1" width="300" height="300"/>
</g>
<g id="Layer_1">
	<g>
		<path class="st2" d="M77.57,110.68h25.66v9.6H87.34v9.39h15.89v9.46H87.34v23.27h-9.77V110.68z"/>
		<path class="st2" d="M139.16,124.14h9.6v38.25h-9.6v-4.04c-1.87,1.78-3.75,3.06-5.64,3.85c-1.88,0.79-3.93,1.18-6.13,1.18
			c-4.94,0-9.21-1.92-12.82-5.75c-3.6-3.83-5.41-8.6-5.41-14.29c0-5.91,1.74-10.75,5.23-14.52c3.49-3.77,7.72-5.66,12.71-5.66
			c2.29,0,4.45,0.43,6.46,1.3c2.01,0.87,3.87,2.17,5.58,3.9V124.14z M129.07,132.02c-2.97,0-5.43,1.05-7.39,3.15
			c-1.96,2.1-2.94,4.79-2.94,8.07c0,3.3,1,6.02,3,8.16c2,2.13,4.46,3.2,7.38,3.2c3.01,0,5.51-1.05,7.5-3.15
			c1.99-2.1,2.98-4.85,2.98-8.24c0-3.33-0.99-6.02-2.98-8.09C134.62,133.05,132.11,132.02,129.07,132.02z"/>
		<path class="st2" d="M186.69,124.14h9.6v38.25h-9.6v-4.04c-1.87,1.78-3.75,3.06-5.64,3.85c-1.88,0.79-3.93,1.18-6.13,1.18
			c-4.94,0-9.21-1.92-12.82-5.75c-3.6-3.83-5.41-8.6-5.41-14.29c0-5.91,1.74-10.75,5.23-14.52c3.49-3.77,7.72-5.66,12.71-5.66
			c2.29,0,4.45,0.43,6.46,1.3c2.01,0.87,3.88,2.17,5.58,3.9V124.14z M176.6,132.02c-2.97,0-5.43,1.05-7.39,3.15
			c-1.96,2.1-2.94,4.79-2.94,8.07c0,3.3,1,6.02,3,8.16c2,2.13,4.46,3.2,7.38,3.2c3.01,0,5.51-1.05,7.5-3.15
			c1.98-2.1,2.98-4.85,2.98-8.24c0-3.33-0.99-6.02-2.98-8.09C182.15,133.05,179.64,132.02,176.6,132.02z"/>
		<path class="st2" d="M234.19,117.71l-7.29,6.43c-2.56-3.56-5.17-5.34-7.82-5.34c-1.29,0-2.35,0.35-3.17,1.04
			c-0.82,0.69-1.23,1.47-1.23,2.34c0,0.87,0.29,1.69,0.88,2.46c0.8,1.03,3.2,3.25,7.22,6.64c3.76,3.14,6.03,5.12,6.83,5.94
			c2,2.02,3.41,3.94,4.24,5.78c0.83,1.84,1.25,3.85,1.25,6.03c0,4.24-1.47,7.75-4.4,10.51s-6.76,4.15-11.47,4.15
			c-3.68,0-6.89-0.9-9.63-2.71s-5.07-4.64-7.02-8.51l8.27-4.99c2.49,4.57,5.35,6.85,8.59,6.85c1.69,0,3.11-0.49,4.26-1.48
			s1.73-2.12,1.73-3.41c0-1.17-0.43-2.34-1.3-3.52c-0.87-1.17-2.78-2.96-5.74-5.38c-5.63-4.59-9.27-8.14-10.92-10.63
			s-2.46-4.99-2.46-7.47c0-3.59,1.37-6.66,4.1-9.23s6.11-3.85,10.12-3.85c2.58,0,5.04,0.6,7.37,1.79
			C228.94,112.37,231.47,114.55,234.19,117.71z"/>
	</g>
	<polyline class="st3" points="245.67,92.69 245.67,180.4 64.44,180.4 64.44,92.69 	"/>
	<polygon class="st4" points="64.44,77.87 54.9,94.38 73.97,94.38 	"/>
	<polygon class="st4" points="245.67,77.87 236.13,94.38 255.2,94.38 	"/>
	<line class="st3" x1="155.05" y1="179.05" x2="155.05" y2="200.9"/>
	<polygon class="st4" points="155.05,217.41 164.59,200.9 145.52,200.9 	"/>
</g>
</svg>
